Coordinates
version=1
nRows=19
nColumns=36
inDegrees=yes

Units are S.I. units (second, meters, Newtons, ...)
If the header above contains a line with 'inDegrees', this indicates whether rotational values are in degrees (yes) or radians (no).

endheader
time	pelvis_tilt	pelvis_list	pelvis_rotation	pelvis_tx	pelvis_ty	pelvis_tz	hip_flexion_r	hip_adduction_r	hip_rotation_r	knee_angle_r	knee_angle_r_beta	ankle_angle_r	subtalar_angle_r	mtp_angle_r	hip_flexion_l	hip_adduction_l	hip_rotation_l	knee_angle_l	knee_angle_l_beta	ankle_angle_l	subtalar_angle_l	mtp_angle_l	lumbar_extension	lumbar_bending	lumbar_rotation	arm_flex_r	arm_add_r	arm_rot_r	elbow_flex_r	pro_sup_r	arm_flex_l	arm_add_l	arm_rot_l	elbow_flex_l	pro_sup_l
      2.88333330	      5.07271328	      0.31166999	      9.70264590	     -0.62003314	      1.30523910	     -0.19636852	    -14.67148730	     -3.75195440	     -7.98771305	      9.82229045	      0.17143131	     14.80698129	      1.06199947	     -7.49999987	    -10.68855856	     -2.63410533	      6.80417235	     23.20651569	      0.40503011	     11.45575875	     -2.78468238	     -7.49999987	    -31.40128553	     -2.82095667	     11.98804209	    -11.42246708	    -34.58591412	     13.56713725	     39.62301062	     73.19152747	     -2.15409691	    -30.61555950	      0.79270162	     63.28338006	     97.73619708
      2.90000000	      3.70098364	      0.45326793	      9.62076699	     -0.60443395	      1.32773663	     -0.20605393	    -14.23345438	     -4.44761647	     -8.22374834	      9.90982185	      0.17295902	     10.65580111	     -1.97336872	     -7.49999987	    -10.19343502	     -1.96406530	      7.81357580	     21.57682128	      0.37658657	      9.02530215	     -4.53737972	     -7.49999987	    -29.49788529	     -2.86532912	     11.66080773	    -15.34856226	    -34.58192063	      7.69945457	     39.27813899	     69.99575700	     -6.46312087	    -29.93018828	     -2.26199641	     64.96523116	     96.68470706
      2.91666670	      2.70720705	      0.57799402	      9.50969759	     -0.57741763	      1.33916019	     -0.21609850	    -13.70603952	     -5.05669154	     -8.77578659	     10.44457443	      0.18229221	      7.47144971	     -4.27543954	     -7.49999987	    -10.10153083	     -1.49891745	      7.88694132	     19.95125540	      0.34821510	      7.06902004	     -4.58368270	     -7.49999987	    -27.54735244	     -2.76940532	     10.93931264	    -18.39759940	    -35.04043805	      2.98992215	     38.53117414	     66.49880342	    -11.18867053	    -28.52340224	     -5.96505069	     65.28616738	     95.37311503
      2.93333330	      1.65907297	      0.68378693	      9.30291662	     -0.56823236	      1.34955454	     -0.22078220	    -11.98501607	     -5.81261219	     -8.69993163	     12.80792639	      0.22354049	      5.10263024	     -7.09369133	     -7.49999987	     -8.75706600	     -0.91936105	      7.55993525	     20.15889037	      0.35183901	      5.76238014	     -5.10207603	     -7.49999987	    -25.90045616	     -2.72150935	     10.38656239	    -21.83263299	    -36.70822439	     -0.12356590	     38.26736454	     63.42009081	    -16.53921709	    -27.44666537	    -10.29632424	     68.10879989	     92.86828582
      2.95000000	      0.61756241	      0.63257448	      9.33608074	     -0.55503356	      1.37919941	     -0.22191518	     -9.65920427	     -6.30473880	     -8.39633836	     15.73332175	      0.27459827	      1.88166974	    -10.70786844	     -7.49999987	     -7.46110917	     -0.78998703	      6.54597778	     19.40066907	      0.33860555	      4.34491787	     -4.21213193	     -7.49999987	    -24.30369280	     -2.73441989	      7.41518007	    -21.14971028	    -39.32394349	      3.19385975	     36.29788430	     54.78328961	    -24.39229354	    -24.60233525	    -18.10258413	     72.47082714	     90.10873255
      2.96666670	     -0.24260349	      0.98045748	      9.14586149	     -0.53974060	      1.38729375	     -0.22281668	     -6.75593251	     -7.21776661	     -7.57472387	     19.21688403	      0.33539790	     -0.70519164	    -13.62633733	     -7.49999987	     -4.86830131	     -0.32475926	      4.82106536	     21.07653711	      0.36785497	      2.01740899	     -4.47256152	     -7.49999987	    -23.24277493	     -2.92184504	      6.84912731	    -22.42219696	    -39.97537448	     -1.36520423	     33.09263766	     52.95827715	    -28.00079145	    -23.13391305	    -21.00762764	     73.29809154	     86.06231360
      2.98333330	     -0.69744920	      1.32596779	      8.84449321	     -0.51833355	      1.38882339	     -0.22762564	     -3.84835726	     -8.04799471	     -6.55917932	     22.66728422	      0.39561874	     -1.73369498	    -15.07463092	     -7.49999987	     -2.69370328	     -0.09738217	      2.98174251	     22.91520382	      0.39994576	     -0.31341190	     -4.60820570	     -7.49999987	    -22.15253984	     -3.18446162	      6.58292732	    -24.55856822	    -41.09650014	     -5.99262819	     30.72975749	     51.57341665	    -32.17465478	    -21.41900532	    -25.10652821	     74.88113558	     84.81737430
      3.00000000	     -1.07812572	      1.55541329	      8.44235668	     -0.49833622	      1.38989742	     -0.24534020	     -0.22400049	     -9.05974055	     -5.60457049	     26.72545347	      0.46644716	     -2.82288898	    -15.99378963	     -7.49999987	     -0.85326001	      0.24003951	      1.16347902	     24.16918460	      0.42183185	     -1.02253100	     -5.05724607	     -7.49999987	    -21.30823543	     -2.99514519	      7.01799936	    -28.51482774	    -43.48419945	     -8.77475838	     28.51020109	     51.12386742	    -36.40895273	    -20.04545383	    -28.55162459	     76.62666543	     83.49256976
      3.01666670	     -1.79403177	      1.79811264	      8.56654329	     -0.48380738	      1.39614663	     -0.24565426	      2.96465950	     -9.81130523	     -4.91676581	     28.72350245	      0.50131969	     -1.38934060	    -14.33123531	     -7.49999987	      2.49951989	      0.33836411	      0.03336264	     26.83437540	      0.46834820	     -1.17156452	     -5.55080257	     -7.49999987	    -20.75797877	     -2.57220664	      6.26589631	    -31.24161967	    -44.75750543	    -15.46704879	     26.66465842	     51.88663407	    -38.77387201	    -19.83624826	    -29.50840580	     76.95164076	     81.46684723
      3.03333330	     -2.39160180	      1.81334746	      8.54998979	     -0.46764208	      1.39375205	     -0.24671163	      6.71260939	    -10.21236994	     -4.23096049	     30.92694836	      0.53977708	      1.06219338	    -12.34242337	     -7.49999987	      5.53460972	     -0.06351555	     -0.92232358	     28.57004564	      0.49864136	     -0.66684350	     -5.97372226	     -7.49999987	    -20.26393164	     -2.20236430	      5.35972309	    -34.04545166	    -47.63458319	    -16.74120970	     25.86911234	     51.99621544	    -41.11939505	    -19.89166457	    -30.86045756	     77.57368394	     80.60163044
      3.05000000	     -3.17012504	      1.92292187	      8.38288411	     -0.45982862	      1.39493761	     -0.24297797	     10.68532333	    -10.66491013	     -3.92304420	     32.45763287	      0.56649256	      4.16521139	     -9.48429163	     -7.49999987	      8.57959422	     -0.46444263	     -1.91771551	     29.65269003	      0.51753707	      0.01690336	     -6.34032375	     -7.49999987	    -20.38224396	     -2.64329150	      2.70954085	    -29.19420215	    -49.34467895	    -24.65634179	     20.79277061	     52.59030629	    -44.01141903	    -18.31070681	    -35.03596423	     78.52663451	     80.73427160
      3.06666670	     -3.97521886	      2.11416328	      8.44526184	     -0.44828315	      1.39490245	     -0.24780405	     14.64788909	    -11.22756433	     -3.33318361	     33.63123262	      0.58697574	      7.37367246	     -5.88164933	     -7.49999987	     12.17087603	     -0.91674588	     -2.75596271	     31.45363873	      0.54896956	      0.43449109	     -6.99822048	     -7.49999987	    -19.90451498	     -3.39325142	     -4.54646388	     -4.55460109	    -54.47499774	    -75.08012829	      2.44570056	    112.12621484	    -50.07957095	    -13.32759093	    -42.17873344	     78.48806568	     82.53040978
      3.08333330	     -4.62756570	      2.12310537	      8.62654378	     -0.42676524	      1.39015420	     -0.24527873	     17.26388376	    -11.36322672	     -3.48907707	     32.96661506	      0.57537598	      8.35904724	     -2.76902713	     -7.49999987	     14.37940247	     -1.66761815	     -3.68603806	     31.46994618	      0.54925418	     -1.35314147	     -7.69536045	     -7.49999987	    -20.66625996	     -3.48063961	     -6.19425542	     -4.63160926	    -56.53733716	    -74.68049839	      2.49163705	    111.85681855	    -52.13575926	    -12.67526724	    -44.64979689	     76.36567036	     82.35187141
      3.10000000	     -4.85629469	      1.97327991	      8.37626120	     -0.40776664	      1.37949186	     -0.25484456	     18.55843983	    -11.30538932	     -4.04653972	     31.21270250	      0.54476443	      8.65931983	     -0.09132362	     -7.49999987	     15.18155169	     -2.57030781	     -4.90347485	     30.09184260	      0.52520173	     -3.13727473	     -7.83966149	     -7.49999987	    -21.22146883	     -3.43500281	     -6.99761303	     -5.58006538	    -58.99601531	    -74.77361225	      2.36674289	    111.65460198	    -55.20205945	    -11.87736722	    -46.29345361	     75.01596894	     82.21966690
      3.11666670	     -4.58826866	      1.81171051	      8.11837764	     -0.37909673	      1.36316276	     -0.26496670	     19.16403733	    -11.34767314	     -4.46613270	     29.93894607	      0.52253318	      9.09927111	      2.17868708	     -7.49999987	     15.35685738	     -3.04960566	     -5.30992145	     28.71340285	      0.50114342	     -4.85850516	     -7.58173237	     -7.49999987	    -21.36069294	     -3.53612669	    -10.43154897	      1.09966731	    -62.39977123	    -73.93888071	      1.71302840	    112.33098239	    -59.64074260	     -6.52754684	    -52.95712671	     72.70175982	     81.47861966
      3.13333330	     -4.90640077	      1.49332296	      8.40130821	     -0.37461272	      1.34992417	     -0.26662556	     20.35749539	    -11.29229717	     -4.88259528	     28.73598857	      0.50153761	      7.95529175	      3.08856082	     -7.49999987	     17.22519793	     -3.54120075	     -5.31608010	     28.12337404	      0.49084547	     -6.23485690	     -7.48151104	     -7.49999987	    -21.90427061	     -3.57415964	    -13.32499756	      5.83132458	    -64.90538588	    -67.55231869	      1.49959956	    111.82037819	    -62.48215462	     -2.58827876	    -58.27816359	     69.75852108	     79.45944347
      3.15000000	     -5.28983509	      1.29985249	      8.89971461	     -0.36410974	      1.32008979	     -0.27175992	     22.01298130	    -11.32909506	     -5.36031332	     27.79814301	      0.48516912	      7.63155571	      4.73686012	     -7.49999987	     19.27561260	     -3.87928890	     -4.61475295	     27.55552870	      0.48093470	     -6.66384454	     -7.52148110	     -7.49999987	    -22.62266794	     -3.39140797	    -15.36551993	      9.46456749	    -68.67116699	    -67.12923827	      1.38825986	    111.25442364	    -65.46377641	      0.10125575	    -63.16023213	     65.99955528	     77.16126542
      3.16666670	     -5.79328652	      0.95211528	      9.05552722	     -0.34720742	      1.30889066	     -0.27357255	     23.77089457	    -11.18070312	     -6.17461496	     26.82750021	      0.46822821	      6.77091479	      6.50569620	     -7.49999987	     21.18465270	     -4.48428523	     -4.65474339	     25.95342375	      0.45297270	     -8.23109674	     -7.58511922	     -7.49999987	    -23.28314778	     -2.86861616	    -16.22930019	      8.60273043	    -71.35988996	    -66.00046943	      1.26877171	    111.31530893	    -67.21675280	      0.83824305	    -64.87618671	     58.46041778	     76.42829104
      3.18333330	     -5.59669897	      0.93169618	      8.97516258	     -0.32406434	      1.27082452	     -0.27841568	     25.09571686	    -11.11222098	     -6.30125330	     26.59657325	      0.46419777	      6.77528651	      7.25220134	     -7.49999987	     22.53681761	     -4.96081765	     -5.11863969	     25.47955613	      0.44470215	     -9.88701569	     -8.63524462	     -7.49999987	    -23.58758099	     -2.62103582	    -19.14933755	     18.59942517	    -75.17337703	    -51.74493889	      1.09644953	    110.66536329	    -72.78148468	      2.15000779	    -62.45930552	     48.55579471	     66.93250748
